<svg width="24" height="24" viewBox="0 0 24 24" fill="none" xmlns="http://www.w3.org/2000/svg">
<path d="M12 0C5.37258 0 0 5.37258 0 12C0 18.6274 5.37258 24 12 24C18.6274 24 24 18.6274 24 12C24 8.8174 22.7357 5.76515 20.4853 3.51472C18.2348 1.26428 15.1826 0 12 0ZM12 23.04C5.90278 23.04 0.96 18.0972 0.96 12C0.96 5.90278 5.90278 0.96 12 0.96C18.0972 0.96 23.04 5.90278 23.04 12C23.0331 18.0944 18.0944 23.0331 12 23.04ZM16.1795 15.5006C16.3655 15.6884 16.3648 15.9911 16.1779 16.178C15.991 16.3648 15.6882 16.3654 15.5005 16.1794L11.6605 12.3394L11.6569 12.3339C11.5697 12.2452 11.5207 12.1259 11.5203 12.0015L11.52 6.24C11.52 5.9749 11.7349 5.76 12 5.76C12.2651 5.76 12.48 5.9749 12.48 6.24V11.8011L16.1795 15.5006Z" fill="#0D3B70"/>
</svg>
