<svg width="24" height="24" viewBox="0 0 24 24" fill="none" xmlns="http://www.w3.org/2000/svg">
<g clip-path="url(#clip0)">
<path d="M17.051 2.56735C17.051 1.71157 17.051 0.874802 17.051 0C17.6261 0 18.1724 0 18.7667 0C18.7667 0.855785 18.7667 1.70206 18.7667 2.58637C20.2619 2.81458 21.4408 3.49921 22.2363 4.75436C22.7826 5.62916 23.0893 6.58003 23.0989 7.66403C22.5238 7.66403 21.9679 7.66403 21.4408 7.66403C21.3258 7.21712 21.2491 6.7607 21.0957 6.34231C20.6165 5.04913 19.658 4.35499 18.2778 4.28843C17.7123 4.2599 17.1277 4.29794 16.5622 4.40254C14.6453 4.76387 13.3992 6.47544 13.6197 8.41521C13.7155 9.26149 14.1277 9.96514 14.9232 10.2789C15.9967 10.6973 17.1277 10.9921 18.2395 11.3249C19.2746 11.6387 20.3385 11.8764 21.3353 12.2758C24.9488 13.7116 24.575 18.4849 22.1021 20.1585C21.2395 20.7385 20.3098 21.1189 19.2938 21.309C19.1405 21.3376 18.9871 21.3661 18.7858 21.4041C18.7858 22.2694 18.7858 23.1157 18.7858 23.9905C18.1916 23.9905 17.6453 23.9905 17.0606 23.9905C17.0606 23.1252 17.0606 22.2884 17.0606 21.4136C15.3449 21.2044 13.8593 20.6149 12.8338 19.1791C12.2299 18.3328 11.8849 17.3914 11.8753 16.3074C12.4504 16.3074 12.9967 16.3074 13.5814 16.3074C13.6005 16.4216 13.6101 16.5452 13.6293 16.6593C13.8689 17.981 14.5973 18.9414 15.8817 19.3788C17.5877 19.9493 19.2555 19.8257 20.8178 18.9128C22.0734 18.1712 22.5814 16.6212 22.0925 15.2615C21.8338 14.5388 21.297 14.0539 20.5973 13.8162C19.6101 13.4739 18.5845 13.2266 17.5782 12.9414C16.706 12.6941 15.805 12.5135 14.9615 12.1902C12.3066 11.1918 11.281 9.04279 12.1341 6.36133C12.805 4.27892 14.2715 3.08082 16.4184 2.68146C16.6197 2.63391 16.821 2.60539 17.051 2.56735Z" fill="#0D3B70"/>
<path d="M8.05102 0.00952148H6.42163V23.9715H8.05102V0.00952148Z" fill="#0D3B70"/>
<path d="M1.62939 10.8494H0V23.9715H1.62939V10.8494Z" fill="#0D3B70"/>
</g>
<defs>
<clipPath id="clip0">
<rect width="24" height="24" fill="white"/>
</clipPath>
</defs>
</svg>
