<svg width="24" height="18" viewBox="0 0 24 18" fill="none" xmlns="http://www.w3.org/2000/svg">
<path d="M9.3207 9.91416C11.359 8.84611 12.4051 6.52482 11.8551 4.29037C11.3051 2.05592 9.30114 0.485348 7 0.485348C4.69886 0.485348 2.69486 2.05592 2.1449 4.29037C1.59493 6.52482 2.64104 8.84611 4.6793 9.91416C1.87996 10.9 0.00536491 13.5425 0 16.5104C0 16.7865 0.223858 17.0104 0.5 17.0104C0.776142 17.0104 1 16.7865 1 16.5104C1 13.1966 3.68629 10.5104 7 10.5104C10.3137 10.5104 13 13.1966 13 16.5104C13 16.7865 13.2239 17.0104 13.5 17.0104C13.7761 17.0104 14 16.7865 14 16.5104C13.9946 13.5425 12.12 10.9 9.3207 9.91416ZM3 5.51036C3 3.30122 4.79086 1.51036 7 1.51036C9.20914 1.51036 11 3.30122 11 5.51036C11 7.7195 9.20914 9.51036 7 9.51036C4.79191 9.50782 3.00253 7.71845 3 5.51036ZM19.64 7.37976C21.1445 6.42738 21.8383 4.59519 21.3421 2.88515C20.8458 1.17511 19.2789 -0.000998973 17.4983 6.36706e-07C15.7177 0.00100025 14.1522 1.17887 13.6578 2.88947C13.1634 4.60006 13.8593 6.43147 15.3649 7.38216C14.0456 7.84166 12.9086 8.71238 12.1211 9.86626C12.3814 10.0865 12.6275 10.3229 12.8579 10.5743C14.1638 8.50369 16.6819 7.54675 19.0333 8.22747C21.3848 8.9082 23.0022 11.0624 23 13.5104C23 13.7865 23.2239 14.0104 23.5 14.0104C23.7761 14.0104 24 13.7865 24 13.5104C23.9952 10.7485 22.2473 8.29071 19.64 7.37976ZM17.5 7.01036C15.8431 7.01036 14.5 5.66721 14.5 4.01036C14.5 2.3535 15.8431 1.01036 17.5 1.01036C19.1569 1.01036 20.5 2.3535 20.5 4.01036C20.4981 5.66644 19.1561 7.00848 17.5 7.01036Z" fill="#0D3B70"/>
</svg>
