<svg width="25" height="25" viewBox="0 0 25 25" fill="none" xmlns="http://www.w3.org/2000/svg">
<path d="M12.5 0C5.59644 0 0 5.59644 0 12.5C0 19.4036 5.59644 25 12.5 25C19.4036 25 25 19.4036 25 12.5C25 9.18479 23.683 6.00537 21.3388 3.66117C18.9946 1.31696 15.8152 0 12.5 0ZM12.5 24C6.14873 24 1 18.8513 1 12.5C1 6.14873 6.14873 1 12.5 1C18.8513 1 24 6.14873 24 12.5C23.9928 18.8483 18.8483 23.9928 12.5 24ZM16 9V9.5C16 9.77614 15.7761 10 15.5 10C15.2239 10 15 9.77614 15 9.5V9C14.9994 8.44794 14.5521 8.00055 14 8H11.82C10.9267 8.0021 10.1664 8.65082 10.0236 9.53264C9.88089 10.4145 10.3978 11.2699 11.2448 11.5537L14.0719 12.4971C15.3843 12.9361 16.1853 14.2614 15.9639 15.6275C15.7425 16.9935 14.5639 17.998 13.18 18H13V18.5C13 18.7761 12.7761 19 12.5 19C12.2239 19 12 18.7761 12 18.5V18H11C9.89596 17.9987 9.00127 17.104 9 16V15.5C9 15.2239 9.22386 15 9.5 15C9.77614 15 10 15.2239 10 15.5V16C10.0006 16.5521 10.4479 16.9994 11 17H13.18C14.0733 16.9979 14.8336 16.3492 14.9764 15.4674C15.1191 14.5855 14.6022 13.7301 13.7552 13.4463L10.9281 12.5029C9.61569 12.0639 8.8147 10.7386 9.03611 9.37252C9.25751 8.00646 10.4361 7.00202 11.82 7H12V6.5C12 6.22386 12.2239 6 12.5 6C12.7761 6 13 6.22386 13 6.5V7H14C15.104 7.00127 15.9987 7.89596 16 9Z" fill="#0D3B70"/>
</svg>
