<svg width="24" height="24" viewBox="0 0 24 24" fill="none" xmlns="http://www.w3.org/2000/svg">
<g clip-path="url(#clip0)">
<path d="M11.4685 23.9826C11.4685 23.6477 11.4685 23.33 11.4685 22.9778C15.2567 23.0182 18.3867 21.6323 20.7197 18.6121C22.2211 16.6659 22.943 14.4311 22.943 11.9826C22.943 6.99896 19.5936 2.6621 14.7601 1.39742C10.0537 0.161618 5.6475 2.24054 3.44153 5.19723C3.5628 5.203 3.66097 5.21455 3.75914 5.21455C4.69466 5.21455 5.6244 5.21455 6.55991 5.21455C6.67541 5.21455 6.7909 5.21455 6.9064 5.24343C7.16049 5.30695 7.29909 5.49752 7.29331 5.75161C7.28754 5.99415 7.15472 6.16739 6.91217 6.23669C6.8371 6.25401 6.76203 6.25979 6.68118 6.25979C5.04692 6.25979 3.40688 6.25979 1.77262 6.25979C1.70909 6.25979 1.6398 6.24824 1.55895 6.24247C1.55318 6.15007 1.54163 6.06345 1.54163 5.9826C1.54163 4.38298 1.54163 2.78914 1.54163 1.18953C1.54163 1.13178 1.54163 1.07403 1.5474 1.01629C1.58205 0.715997 1.80149 0.508105 2.07868 0.51388C2.36165 0.519654 2.57531 0.733321 2.58109 1.03938C2.59264 1.48982 2.58686 1.94603 2.58686 2.39646C2.58686 3.07788 2.58686 3.75931 2.58686 4.52158C4.80438 1.88828 7.54163 0.346411 10.9141 0.0518968C14.2808 -0.242617 17.2664 0.733321 19.8304 2.92774C23.8727 6.38106 25.1316 12.1154 22.891 17.0009C20.5926 22.0076 15.6436 24.2251 11.4685 23.9826Z" fill="#0D3B70"/>
<path d="M11.4631 6.27721C11.4631 5.75748 11.4631 5.2493 11.4631 4.71802C11.8096 4.71802 12.1388 4.71802 12.4968 4.71802C12.4968 5.23775 12.4968 5.75171 12.4968 6.28876C13.3977 6.42736 14.108 6.84314 14.5873 7.60541C14.9165 8.13669 15.1013 8.71417 15.107 9.3725C14.7606 9.3725 14.4256 9.3725 14.108 9.3725C14.0387 9.10108 13.9925 8.82389 13.9001 8.5698C13.6114 7.78443 13.0339 7.36287 12.2023 7.32245C11.8616 7.30512 11.5093 7.32822 11.1686 7.39175C10.0137 7.61119 9.26296 8.65065 9.39578 9.82871C9.45352 10.3427 9.70184 10.77 10.1811 10.9606C10.8279 11.2147 11.5093 11.3937 12.1792 11.5958C12.8029 11.7864 13.4439 11.9307 14.0445 12.1733C16.2216 13.0453 15.9964 15.9442 14.5065 16.9606C13.9867 17.3128 13.4266 17.5438 12.8144 17.6593C12.7221 17.6766 12.6297 17.694 12.5084 17.7171C12.5084 18.2426 12.5084 18.7565 12.5084 19.2878C12.1503 19.2878 11.8212 19.2878 11.4689 19.2878C11.4689 18.7623 11.4689 18.2541 11.4689 17.7228C10.4352 17.5958 9.54015 17.2378 8.92224 16.3658C8.55843 15.8518 8.35054 15.2801 8.34477 14.6218C8.69125 14.6218 9.02041 14.6218 9.37268 14.6218C9.38423 14.6911 9.39 14.7662 9.40155 14.8354C9.54592 15.6381 9.9848 16.2214 10.7586 16.487C11.7865 16.8335 12.7913 16.7585 13.7326 16.2041C14.4891 15.7536 14.7952 14.8123 14.5007 13.9866C14.3448 13.5477 14.0214 13.2532 13.5998 13.1088C13.005 12.9009 12.3871 12.7507 11.7808 12.5775C11.2553 12.4274 10.7124 12.3176 10.2042 12.1213C8.60463 11.5149 7.98673 10.2098 8.50068 8.58135C8.90492 7.31667 9.78846 6.58905 11.082 6.34651C11.1975 6.31763 11.3246 6.30031 11.4631 6.27721Z" fill="#0D3B70"/>
<path d="M0.277144 14.6275C0.202071 14.2579 0.132774 13.9345 0.0634766 13.5938C0.415738 13.5187 0.727577 13.4494 1.07406 13.3743C1.14914 13.7093 1.21843 14.0211 1.29928 14.3965C0.964343 14.4715 0.640955 14.5408 0.277144 14.6275Z" fill="#0D3B70"/>
<path d="M0.514038 15.638C0.8432 15.5052 1.14349 15.3839 1.47843 15.2511C1.61125 15.5687 1.73252 15.8748 1.87689 16.2213C1.55927 16.3483 1.25321 16.4754 0.912498 16.6139C0.779678 16.2963 0.658407 15.9903 0.514038 15.638Z" fill="#0D3B70"/>
<path d="M8.73745 22.5043C8.60463 22.8393 8.48336 23.1396 8.35054 23.4687C8.02138 23.3359 7.71531 23.2146 7.38037 23.0818C7.50742 22.7584 7.62869 22.4524 7.76151 22.1174C8.0849 22.2445 8.39674 22.3657 8.73745 22.5043Z" fill="#0D3B70"/>
<path d="M3.93257 19.4436C3.65538 19.6804 3.40706 19.8883 3.13565 20.1193C2.90466 19.8479 2.68521 19.588 2.45422 19.3166C2.71986 19.0914 2.96818 18.8777 3.24537 18.6409C3.47636 18.9008 3.6958 19.1607 3.93257 19.4436Z" fill="#0D3B70"/>
<path d="M10.614 22.9144C10.5389 23.2667 10.4696 23.5728 10.3887 23.925C10.048 23.8499 9.71888 23.7806 9.36084 23.7056C9.43591 23.3649 9.50521 23.0472 9.58028 22.6892C9.92677 22.7701 10.2559 22.8394 10.614 22.9144Z" fill="#0D3B70"/>
<path d="M3.86914 20.8469C4.10591 20.5697 4.3138 20.3214 4.54479 20.0558C4.82198 20.2926 5.08185 20.512 5.34749 20.7372C5.12227 21.0029 4.9086 21.2512 4.67184 21.5284C4.4062 21.3031 4.15211 21.0837 3.86914 20.8469Z" fill="#0D3B70"/>
<path d="M1.32251 17.561C1.63435 17.3705 1.91154 17.203 2.2176 17.024C2.39662 17.3243 2.57564 17.613 2.76043 17.9249C2.46014 18.1039 2.17718 18.2771 1.87111 18.4619C1.68632 18.1558 1.51308 17.8729 1.32251 17.561Z" fill="#0D3B70"/>
<path d="M5.52625 22.1173C5.71104 21.8113 5.87851 21.5341 6.0633 21.228C6.36358 21.407 6.65232 21.5803 6.96416 21.7709C6.78514 22.0711 6.6119 22.3483 6.42133 22.6659C6.12682 22.4812 5.84386 22.3079 5.52625 22.1173Z" fill="#0D3B70"/>
<path d="M0 11.4861C0.340712 11.4861 0.658325 11.4861 0.993263 11.4861C0.993263 11.8211 0.993263 12.1502 0.993263 12.5025C0.669875 12.5025 0.340712 12.5025 0 12.5025C0 12.1618 0 11.8269 0 11.4861Z" fill="#0D3B70"/>
</g>
<defs>
<clipPath id="clip0">
<rect width="23.9942" height="24" fill="white"/>
</clipPath>
</defs>
</svg>
